<svg viewBox="0 0 314 344" style="shape-rendering:geometricPrecision; text-rendering:geometricPrecision; image-rendering:optimizeQuality; fill-rule:evenodd; clip-rule:evenodd" xmlns="http://www.w3.org/2000/svg" xmlns:bx="https://boxy-svg.com">
  <defs></defs>
  <rect style="stroke: rgb(0, 0, 0); stroke-width: 0px; fill: rgb(28, 29, 22);" transform="matrix(0.9999999999999999, 0.0004959999932907522, -0.0004959999932907522, 0.9999999999999999, 1.0105990171432424, -0.017137000337246633)" x="34.583" y="21.376" width="250.141" height="292.492" rx="15" ry="15"></rect>
  <rect x="102.5" y="68.5" width="153" height="8" style="fill: rgb(216, 216, 216); stroke: rgb(0, 0, 0); stroke-width: 0px;" transform="matrix(0.9999999999999999, 0, 0, 0.9999999999999999, -7.105427357601002e-15, -3.552713678800501e-15)"></rect>
  <rect x="101.5" y="127.5" width="153" height="8" style="fill: rgb(216, 216, 216); stroke: rgb(0, 0, 0); stroke-width: 0px;" transform="matrix(0.9999999999999999, 0, 0, 0.9999999999999999, -7.105427357601002e-15, -3.552713678800501e-15)"></rect>
  <rect x="102.5" width="153" style="fill: rgb(216, 216, 216); stroke: rgb(0, 0, 0); stroke-width: 0px;" height="8" y="184.5" transform="matrix(0.9999999999999999, 0, 0, 0.9999999999999999, -7.105427357601002e-15, -3.552713678800501e-15)"></rect>
  <rect x="102.5" y="240.5" width="153" height="8" style="fill: rgb(216, 216, 216); stroke: rgb(0, 0, 0); stroke-width: 0px;" transform="matrix(0.9999999999999999, 0, 0, 0.9999999999999999, -7.105427357601002e-15, -3.552713678800501e-15)"></rect>
  <circle style="fill: rgb(216, 216, 216); stroke: rgb(0, 0, 0);" transform="matrix(0.0486530028283596, 0.9988160729408263, -1.05233895778656, 0.05126000195741653, 145.59330749511716, -5.181231021881107)" cx="73.49363640496142" cy="71.9115867614746" r="11.425117155878366"></circle>
  <circle style="fill: rgb(216, 216, 216); stroke: rgb(0, 0, 0);" transform="matrix(0.0486530028283596, 0.9988160729408263, -1.05233895778656, 0.05126000195741653, 145.59330749511716, 54.81877136230469)" cx="73.49363640496142" cy="71.9115867614746" r="11.425117155878366"></circle>
  <circle style="fill: rgb(216, 216, 216); stroke: rgb(0, 0, 0);" transform="matrix(0.0486530028283596, 0.9988160729408263, -1.05233895778656, 0.05126000195741653, 145.59330749511716, 110.81877136230469)" cx="73.49363640496142" cy="71.9115867614746" r="11.425117155878366"></circle>
  <circle style="fill: rgb(216, 216, 216); stroke: rgb(0, 0, 0);" transform="matrix(0.0486530028283596, 0.9988160729408263, -1.05233895778656, 0.05126000195741653, 145.59330749511716, 166.81877136230466)" cx="73.49363640496142" cy="71.9115867614746" r="11.425117155878366"></circle>
  <rect style="stroke: rgb(0, 0, 0); stroke-width: 0px; fill: rgb(29, 29, 23);" height="145.946" x="136.262" y="928.241" width="26.348" transform="matrix(0.723965, 0.689837, -0.689837, 0.723965, 798.533776, -595.022173)"></rect>
  <path d="M 313.108 194.533 H 432.034 L 432.034 194.533 L 455.108 217.101 L 432.034 239.668 L 432.034 239.668 H 313.108 V 194.533 Z" style="stroke: rgb(0, 0, 0); stroke-width: 0px; fill: rgb(250, 227, 2);" transform="matrix(-0.690183, 0.723635, -0.723635, -0.690183, 642.345905, 151.442052)" bx:shape="arrow 313.108 194.533 142 45.135 45.135 23.074 0 1@465dca73"></path>
  <rect style="stroke: rgb(0, 0, 0); stroke-width: 0px; fill: rgb(224, 163, 225);" height="39.683" x="233.24" y="252.391" width="45.1" transform="matrix(0.723965, 0.689837, -0.689837, 0.723965, 285.199471, -159.365376)"></rect>
</svg>
